<?xml version="1.0" encoding="iso-8859-1"?>
<!-- Uploaded to: SVG Repo, www.svgrepo.com, Generator: SVG Repo Mixer Tools -->
<svg height="800px" width="800px" version="1.1" id="Layer_1" xmlns="http://www.w3.org/2000/svg" xmlns:xlink="http://www.w3.org/1999/xlink"
	 viewBox="0 0 512 512" xml:space="preserve">
<g transform="translate(1 1)">
	<g>
		<path style="fill:#FFDD09;" d="M438.467,237.933h-34.133c-5.12,0-8.533-3.413-8.533-8.533c0-5.12,3.413-8.533,8.533-8.533h34.133
			c5.12,0,8.533,3.413,8.533,8.533C447,234.52,443.587,237.933,438.467,237.933z"/>
		<path style="fill:#FFDD09;" d="M421.4,314.733c-18.773,0-34.133-15.36-34.133-34.133c0-5.12,3.413-8.533,8.533-8.533
			s8.533,3.413,8.533,8.533c0,9.387,7.68,17.067,17.067,17.067s17.067-7.68,17.067-17.067s-7.68-17.067-17.067-17.067
			c-2.56,0-4.267-0.853-5.973-2.56c-1.707-1.707-2.56-3.413-2.56-5.973V58.733c0-5.12,3.413-8.533,8.533-8.533l0,0
			c5.12,0,8.533,3.413,8.533,8.533V247.32c14.507,3.413,25.6,17.067,25.6,33.28C455.533,299.373,440.173,314.733,421.4,314.733z"/>
		<path style="fill:#FFDD09;" d="M441.027,33.133c0-14.507-11.093-25.6-25.6-25.6c-14.507,0-25.6,11.093-25.6,25.6
			s11.093,25.6,25.6,25.6C429.08,58.733,441.027,47.64,441.027,33.133"/>
	</g>
	<path style="fill:#FD9808;" d="M413.72,7.533c-3.413,0-6.827,0.853-9.387,1.707c9.387,3.413,16.213,12.8,16.213,23.893
		s-6.827,19.627-16.213,23.893c3.413,0.853,5.973,1.707,9.387,1.707c14.507,0,25.6-11.093,25.6-25.6S428.227,7.533,413.72,7.533"/>
	<path style="fill:#FFDD09;" d="M389.827,33.133L206.36,229.4h59.733c5.973,0,11.947,0.853,17.067,2.56L412.867,58.733
		C400.067,57.88,389.827,46.787,389.827,33.133"/>
	<path style="fill:#FCC309;" d="M374.467,502.467H109.933c-25.6,0-46.933-21.333-46.933-46.933l0,0
		c0-25.6,21.333-46.933,46.933-46.933h264.533c25.6,0,46.933,21.333,46.933,46.933l0,0
		C421.4,481.133,400.92,502.467,374.467,502.467"/>
	<path style="fill:#FD9808;" d="M374.467,408.6H357.4c25.6,0,46.933,21.333,46.933,46.933S383,502.467,357.4,502.467h17.067
		c25.6,0,46.933-21.333,46.933-46.933S400.92,408.6,374.467,408.6"/>
	<path style="fill:#FFFFFF;" d="M109.933,408.6H127c-25.6,0-46.933,21.333-46.933,46.933S101.4,502.467,127,502.467h-17.067
		c-25.6,0-46.933-21.333-46.933-46.933S84.333,408.6,109.933,408.6"/>
	<path style="fill:#FFDD09;" d="M344.6,455.533c0-10.24,7.68-18.773,17.067-21.333l0,0H242.2H122.733l0,0
		c9.387,1.707,17.067,10.24,17.067,21.333c0,10.24-7.68,18.773-17.067,20.48v0.853H242.2h119.467l0,0
		C352.28,474.307,344.6,465.773,344.6,455.533"/>
	<g>
		<path style="fill:#1CD759;" d="M139.8,455.533c0-11.947-9.387-21.333-21.333-21.333s-21.333,9.387-21.333,21.333
			s9.387,21.333,21.333,21.333S139.8,467.48,139.8,455.533"/>
		<path style="fill:#1CD759;" d="M387.267,455.533c0-11.947-9.387-21.333-21.333-21.333s-21.333,9.387-21.333,21.333
			s9.387,21.333,21.333,21.333S387.267,467.48,387.267,455.533"/>
	</g>
	<path style="fill:#FFDD09;" d="M182.467,246.467v68.267H89.453C74.947,314.733,63,326.68,63,341.187V383h119.467H319V282.307
		c0-6.827-0.853-13.653-3.413-19.627l0,0c-7.68-20.48-27.307-33.28-49.493-33.28h-66.56
		C190.147,229.4,182.467,237.08,182.467,246.467"/>
	<path style="fill:#1CD759;" d="M89.453,314.733C74.947,314.733,63,326.68,63,341.187v7.68h42.667c14.507,0,25.6-11.947,25.6-25.6
		v-8.533H89.453z"/>
	<path style="fill:#FFFFFF;" d="M115.053,314.733h-25.6C74.947,314.733,63,326.68,63,341.187V383h25.6v-41.813
		C88.6,326.68,100.547,314.733,115.053,314.733"/>
	<path style="fill:#FD9808;" d="M315.587,262.68c-7.68-20.48-27.307-33.28-49.493-33.28h-25.6c21.333,0,40.96,12.8,49.493,33.28
		c2.56,5.973,3.413,12.8,3.413,19.627V383H319V282.307C319,275.48,318.147,268.653,315.587,262.68"/>
	<path style="fill:#54C9FD;" d="M265.24,229.4h-40.107v60.587c0,14.507,9.387,27.307,23.04,32.427l70.827,25.6v-66.56
		c0-17.067-8.533-33.28-23.04-44.373C286.573,231.96,275.48,229.4,265.24,229.4"/>
	<path style="fill:#33A9F8;" d="M295.96,237.933c-9.387-5.973-19.627-8.533-30.72-8.533h-25.6c11.093,0,22.187,2.56,30.72,8.533
		c15.36,10.24,23.04,27.307,23.04,44.373v57.173l25.6,9.387v-66.56C319,265.24,311.32,249.027,295.96,237.933"/>
	<path d="M374.467,511H109.933c-30.72,0-55.467-24.747-55.467-55.467s24.747-55.467,55.467-55.467h264.533
		c30.72,0,55.467,24.747,55.467,55.467S405.187,511,374.467,511z M109.933,417.133c-21.333,0-38.4,17.067-38.4,38.4
		s17.067,38.4,38.4,38.4h264.533c21.333,0,38.4-17.067,38.4-38.4s-17.067-38.4-38.4-38.4H109.933z"/>
	<path d="M118.467,485.4c-16.213,0-29.867-13.653-29.867-29.867s13.653-29.867,29.867-29.867s29.867,13.653,29.867,29.867
		S134.68,485.4,118.467,485.4z M118.467,442.733c-6.827,0-12.8,5.973-12.8,12.8s5.973,12.8,12.8,12.8s12.8-5.973,12.8-12.8
		S125.293,442.733,118.467,442.733z"/>
	<path d="M365.933,485.4c-16.213,0-29.867-13.653-29.867-29.867s13.653-29.867,29.867-29.867S395.8,439.32,395.8,455.533
		S382.147,485.4,365.933,485.4z M365.933,442.733c-6.827,0-12.8,5.973-12.8,12.8s5.973,12.8,12.8,12.8s12.8-5.973,12.8-12.8
		S372.76,442.733,365.933,442.733z"/>
	<path d="M284.867,417.133h-85.333c-5.12,0-8.533-3.413-8.533-8.533V383c0-5.12,3.413-8.533,8.533-8.533h85.333
		c5.12,0,8.533,3.413,8.533,8.533v25.6C293.4,413.72,289.987,417.133,284.867,417.133z M208.067,400.067h68.267v-8.533h-68.267
		V400.067z"/>
	<path d="M319,391.533H63c-5.12,0-8.533-3.413-8.533-8.533v-41.813c0-18.773,15.36-34.987,34.987-34.987h84.48v-59.733
		c0-14.507,11.093-25.6,25.6-25.6h66.56c25.6,0,47.787,15.36,57.173,38.4c2.56,7.68,4.267,15.36,4.267,23.04V383
		C327.533,388.12,324.12,391.533,319,391.533z M71.533,374.467h238.933v-92.16c0-5.973-0.853-11.093-3.413-16.213
		c-6.827-17.067-23.04-28.16-40.96-28.16h-66.56c-5.12,0-8.533,4.267-8.533,8.533v68.267c0,5.12-3.413,8.533-8.533,8.533H89.453
		c-10.24,0-17.92,7.68-17.92,17.92V374.467z"/>
	<path d="M105.667,357.4H63c-5.12,0-8.533-3.413-8.533-8.533v-7.68c0-18.773,15.36-34.987,34.987-34.987h41.813
		c5.12,0,8.533,3.413,8.533,8.533v8.533C139.8,342.04,124.44,357.4,105.667,357.4z M71.533,340.333h34.133
		c9.387,0,17.067-7.68,17.067-17.067h-33.28C80.067,323.267,72.387,330.947,71.533,340.333z"/>
	<path d="M319,357.4c-0.853,0-1.707,0-2.56-0.853l-70.827-25.6c-17.067-5.973-28.16-22.187-28.16-40.96V229.4
		c0-5.12,3.413-8.533,8.533-8.533h39.253c13.653,0,25.6,3.413,35.84,10.24c17.067,11.947,27.307,30.72,27.307,51.2v66.56
		c0,2.56-1.707,5.12-3.413,6.827C322.413,356.547,320.707,357.4,319,357.4z M233.667,237.933v52.053
		c0,11.093,6.827,20.48,17.067,24.747l59.733,21.333v-54.613c0-14.507-7.68-28.16-19.627-36.693c-6.827-5.12-16.213-7.68-25.6-7.68
		h-31.573V237.933z"/>
	<path d="M361.667,485.4H122.733c-5.12,0-8.533-3.413-8.533-8.533c0-4.267,2.56-7.68,6.827-8.533
		c5.973-1.707,10.24-6.827,10.24-12.8s-4.267-11.093-10.24-12.8c-4.267-0.853-6.827-4.267-6.827-8.533
		c0-5.12,3.413-8.533,8.533-8.533h238.933c5.12,0,8.533,3.413,8.533,8.533c0,4.267-2.56,7.68-6.827,8.533
		c-5.973,0.853-10.24,6.827-10.24,12.8s4.267,11.093,10.24,12.8c4.267,0.853,6.827,4.267,6.827,8.533S366.787,485.4,361.667,485.4z
		 M122.733,476.867L122.733,476.867L122.733,476.867z M145.773,468.333H339.48c-1.707-4.267-2.56-8.533-2.56-12.8
		s0.853-8.533,2.56-12.8H145.773c1.707,4.267,2.56,8.533,2.56,12.8S147.48,464.067,145.773,468.333z"/>
	<path d="M237.933,203.8c-4.267,0-7.68-3.413-8.533-7.68s2.56-9.387,7.68-9.387l72.533-9.387l-4.267-62.293
		c0-4.267,2.56-8.533,7.68-9.387l55.467-6.827l-3.413-46.933c0-5.12,3.413-8.533,7.68-9.387c5.12,0,8.533,3.413,9.387,7.68
		l4.267,55.467c0,4.267-2.56,8.533-7.68,9.387l-55.467,6.827l4.267,62.293c0,4.267-2.56,8.533-7.68,9.387L239.64,203.8
		C238.787,203.8,238.787,203.8,237.933,203.8z"/>
	<path d="M415.427,67.267c-18.773,0-34.133-15.36-34.133-34.133S396.653-1,415.427-1C434.2-1,449.56,14.36,449.56,33.133
		S434.2,67.267,415.427,67.267z M415.427,16.067c-9.387,0-17.067,7.68-17.067,17.067S406.04,50.2,415.427,50.2
		c9.387,0,17.067-7.68,17.067-17.067S424.813,16.067,415.427,16.067z"/>
	<path d="M283.16,240.493c-0.853,0-1.707,0-2.56-0.853c-5.12-1.707-9.387-2.56-14.507-2.56H206.36c-3.413,0-6.827-1.707-7.68-5.12
		s-0.853-6.827,1.707-9.387L383,26.307c2.56-2.56,5.973-3.413,9.387-1.707c3.413,1.707,5.973,5.12,5.973,8.533
		c0,8.533,6.827,16.213,15.36,17.067c3.413,0,5.973,2.56,6.827,5.12c1.707,2.56,0.853,5.973-0.853,8.533L289.987,237.08
		C288.28,239.64,285.72,240.493,283.16,240.493z M225.987,220.867h40.107c4.267,0,9.387,0.853,13.653,1.707L399.213,63
		c-5.973-3.413-10.24-7.68-13.653-12.8L225.987,220.867z"/>
	<path d="M429.933,237.933H395.8c-5.12,0-8.533-3.413-8.533-8.533c0-5.12,3.413-8.533,8.533-8.533h34.133
		c5.12,0,8.533,3.413,8.533,8.533C438.467,234.52,435.053,237.933,429.933,237.933z"/>
	<path d="M412.867,314.733c-18.773,0-34.133-15.36-34.133-34.133c0-5.12,3.413-8.533,8.533-8.533s8.533,3.413,8.533,8.533
		c0,9.387,7.68,17.067,17.067,17.067s17.067-7.68,17.067-17.067s-7.68-17.067-17.067-17.067c-2.56,0-4.267-0.853-5.973-2.56
		c-1.707-1.707-2.56-3.413-2.56-5.973V58.733c0-5.12,3.413-8.533,8.533-8.533l0,0c5.12,0,8.533,3.413,8.533,8.533V247.32
		c14.507,3.413,25.6,17.067,25.6,33.28C447,299.373,431.64,314.733,412.867,314.733z"/>
</g>
</svg>
